{
  "asset": {
    "generator": "Khronos glTF Blender I/O v3.2.43",
    "version": "2.0"
  },
  "scene": 0,
  "scenes": [
    {
      "name": "Scene",
      "nodes": [
        0
      ]
    }
  ],
  "nodes": [
    {
      "mesh": 0,
      "name": "sphere_gltf"
    }
  ],
  "materials": [
    {
      "doubleSided": true,
      "name": "coral_fort_wall_02",
      "normalTexture": {
        "index": 0
      },
      "pbrMetallicRoughness": {
        "baseColorTexture": {
          "index": 1
        },
        "metallicFactor": 0,
        "metallicRoughnessTexture": {
          "index": 2
        }
      }
    }
  ],
  "meshes": [
    {
      "name": "Sphere.001",
      "primitives": [
        {
          "attributes": {
            "POSITION": 0,
            "NORMAL": 1,
            "TEXCOORD_0": 2
          },
          "indices": 3,
          "material": 0
        }
      ]
    }
  ],
  "textures": [
    {
      "sampler": 0,
      "source": 0
    },
    {
      "sampler": 0,
      "source": 1
    },
    {
      "sampler": 0,
      "source": 2
    }
  ],
  "images": [
    {
      "mimeType": "image/jpeg",
      "name": "coral_fort_wall_02_nor_gl_8k",
      "uri": "textures/coral_fort_wall_02_nor_gl_2k.jpg"
    },
    {
      "mimeType": "image/jpeg",
      "name": "coral_fort_wall_02_diff_8k",
      "uri": "textures/coral_fort_wall_02_diff_2k.jpg"
    },
    {
      "mimeType": "image/jpeg",
      "name": "coral_fort_wall_02_rough_8k",
      "uri": "textures/coral_fort_wall_02_rough_2k.jpg"
    }
  ],
  "accessors": [
    {
      "bufferView": 0,
      "componentType": 5126,
      "count": 53886,
      "max": [
        0.5066426992416382,
        0.5039550065994263,
        0.5038047432899475
      ],
      "min": [
        -0.5066428184509277,
        -0.5026815533638,
        -0.5038062930107117
      ],
      "type": "VEC3"
    },
    {
      "bufferView": 1,
      "componentType": 5126,
      "count": 53886,
      "type": "VEC3"
    },
    {
      "bufferView": 2,
      "componentType": 5126,
      "count": 53886,
      "type": "VEC2"
    },
    {
      "bufferView": 3,
      "componentType": 5123,
      "count": 322170,
      "type": "SCALAR"
    }
  ],
  "bufferViews": [
    {
      "buffer": 0,
      "byteLength": 646632,
      "byteOffset": 0
    },
    {
      "buffer": 0,
      "byteLength": 646632,
      "byteOffset": 646632
    },
    {
      "buffer": 0,
      "byteLength": 431088,
      "byteOffset": 1293264
    },
    {
      "buffer": 0,
      "byteLength": 644340,
      "byteOffset": 1724352
    }
  ],
  "samplers": [
    {
      "magFilter": 9729,
      "minFilter": 9987
    }
  ],
  "buffers": [
    {
      "byteLength": 2368692,
      "uri": "coral_fort_wall_02.bin"
    }
  ]
}