{
  "asset": {
    "generator": "Khronos glTF Blender I/O v1.6.16",
    "version": "2.0"
  },
  "scene": 0,
  "scenes": [
    {
      "name": "Scene",
      "nodes": [0]
    }
  ],
  "nodes": [
    {
      "mesh": 0,
      "name": "sphere_gltf"
    }
  ],
  "materials": [
    {
      "doubleSided": true,
      "name": "snow_field_aerial",
      "normalTexture": {
        "index": 0
      },
      "pbrMetallicRoughness": {
        "baseColorTexture": {
          "index": 1
        },
        "metallicFactor": 0,
        "metallicRoughnessTexture": {
          "index": 2
        }
      }
    }
  ],
  "meshes": [
    {
      "name": "Sphere.001",
      "primitives": [
        {
          "attributes": {
            "POSITION": 0,
            "NORMAL": 1,
            "TEXCOORD_0": 2
          },
          "indices": 3,
          "material": 0
        }
      ]
    }
  ],
  "textures": [
    {
      "sampler": 0,
      "source": 0
    },
    {
      "sampler": 0,
      "source": 1
    },
    {
      "sampler": 0,
      "source": 2
    }
  ],
  "images": [
    {
      "mimeType": "image/jpeg",
      "name": "snow_field_aerial_nor_gl_4k",
      "uri": "textures/snow_field_aerial_nor_gl_2k.jpg"
    },
    {
      "mimeType": "image/jpeg",
      "name": "snow_field_aerial_col_4k",
      "uri": "textures/snow_field_aerial_col_2k.jpg"
    },
    {
      "mimeType": "image/jpeg",
      "name": "snow_field_aerial_rough_4k",
      "uri": "textures/snow_field_aerial_rough_2k.jpg"
    }
  ],
  "accessors": [
    {
      "bufferView": 0,
      "componentType": 5126,
      "count": 53922,
      "max": [40.60137939453125, 40.69764709472656, 39.87321853637695],
      "min": [-40.601348876953125, -42.40564727783203, -39.873451232910156],
      "type": "VEC3"
    },
    {
      "bufferView": 1,
      "componentType": 5126,
      "count": 53922,
      "type": "VEC3"
    },
    {
      "bufferView": 2,
      "componentType": 5126,
      "count": 53922,
      "type": "VEC2"
    },
    {
      "bufferView": 3,
      "componentType": 5123,
      "count": 322170,
      "type": "SCALAR"
    }
  ],
  "bufferViews": [
    {
      "buffer": 0,
      "byteLength": 647064,
      "byteOffset": 0
    },
    {
      "buffer": 0,
      "byteLength": 647064,
      "byteOffset": 647064
    },
    {
      "buffer": 0,
      "byteLength": 431376,
      "byteOffset": 1294128
    },
    {
      "buffer": 0,
      "byteLength": 644340,
      "byteOffset": 1725504
    }
  ],
  "samplers": [
    {
      "magFilter": 9729,
      "minFilter": 9987
    }
  ],
  "buffers": [
    {
      "byteLength": 2369844,
      "uri": "snow_field_aerial.bin"
    }
  ]
}
